<svg xmlns="http://www.w3.org/2000/svg" version="1.1" xmlns:xlink="http://www.w3.org/1999/xlink" xmlns:svgjs="http://svgjs.dev/svgjs" width="1000" height="1000" viewBox="0 0 1000 1000"><rect width="1000" height="1000" fill="#000000"></rect><g transform="matrix(0.7,0,0,0.7,149.57575757575756,395.40751358805636)"><svg viewBox="0 0 396 119" data-background-color="#ffffff" preserveAspectRatio="xMidYMid meet" height="300" width="1000" xmlns="http://www.w3.org/2000/svg" xmlns:xlink="http://www.w3.org/1999/xlink"><g id="tight-bounds" transform="matrix(1,0,0,1,0.2400000000000091,-0.2309243665652616)"><svg viewBox="0 0 395.52 119.46184873313051" height="119.46184873313051" width="395.52"><g><svg viewBox="0 0 1122.663863668925 339.08652068105016" height="119.46184873313051" width="395.52"><g><svg viewBox="0 0 1122.663863668925 339.08652068105016" height="339.08652068105016" width="1122.663863668925"><g><svg viewBox="0 0 1122.663863668925 339.08652068105016" height="339.08652068105016" width="1122.663863668925"><g><svg viewBox="0 0 1122.663863668925 245.672304" height="245.672304" width="1122.663863668925"><g><svg><g></g><g></g></svg></g><g><svg><g></g><g><svg></svg></g></svg></g><g id="text-0"><svg viewBox="0 0 1122.663863668925 245.672304" height="245.672304" width="1122.663863668925"><g transform="matrix(1,0,0,1,0,46.923410063999995)"><svg width="156.16335483977142" viewBox="3.5 -35 34 35" height="151.825483872" data-palette-color="#010c80"><path d="M3.5-35L21.5-35Q25.25-35 28.23-34.18 31.2-33.35 33.25-31.78 35.3-30.2 36.4-27.93 37.5-25.65 37.5-22.75L37.5-22.75Q37.5-19.85 36.4-17.57 35.3-15.3 33.25-13.73 31.2-12.15 28.23-11.33 25.25-10.5 21.5-10.5L21.5-10.5 10.75-10.5 10.75 0 3.5 0 3.5-35ZM21.5-31.25L10.75-31.25 10.75-14.25 21.5-14.25Q25.45-14.25 27.63-16.32 29.8-18.4 29.8-22.75L29.8-22.75Q29.8-27.1 27.63-29.18 25.45-31.25 21.5-31.25L21.5-31.25Z" opacity="1" transform="matrix(1,0,0,1,0,0)" fill="#010c80" class="undefined-gc-0"></path></svg></g><g><svg xmlns="http://www.w3.org/2000/svg" xmlns:xlink="http://www.w3.org/1999/xlink" version="1.1" x="169.53335483977142" y="0" viewBox="0 11.824 90 58.83" enable-background="new 0 0 90 90" xml:space="preserve" height="245.672304" width="375.83728301886794" class="icon-ju-0" data-fill-palette-color="accent" id="ju-0"><path d="M60.133 31.399H28.454l-6.472 14.903h-6.167v17.013h5.026v3.859c0 1.923 1.558 3.48 3.48 3.48s3.48-1.558 3.48-3.48v-3.859H60.31v3.859c0 1.923 1.558 3.48 3.48 3.48 1.922 0 3.479-1.558 3.479-3.48v-3.859h4.995V46.303h-5.981L60.133 31.399zM26.414 58.049c-0.549 0.324-1.192 0.521-1.887 0.521-1.979 0-3.583-1.524-3.583-3.405 0-1.88 1.604-3.405 3.583-3.405 0.091 0 0.176 0.019 0.265 0.025 1.853 0.131 3.318 1.587 3.318 3.38C28.11 56.385 27.429 57.447 26.414 58.049zM32.789 38.009H55.71l2.06 4.988H30.623L32.789 38.009zM63.762 58.57c-0.66 0-1.271-0.183-1.804-0.479-1.059-0.591-1.778-1.674-1.778-2.926 0-1.88 1.604-3.405 3.582-3.405 0.045 0 0.087 0.011 0.132 0.013 1.917 0.066 3.451 1.556 3.451 3.393C67.345 57.046 65.741 58.57 63.762 58.57z" fill="#ffffff" data-fill-palette-color="accent"></path><polygon points="0,11.824 0,69.605 7.98,69.605 7.98,19.804 82.02,19.804 82.02,69.735 90,69.735 90,11.824 " fill="#ffffff" data-fill-palette-color="accent"></polygon></svg></g><g transform="matrix(1,0,0,1,558.7406378586394,46.923410063999995)"><svg width="563.9232258102857" viewBox="3.5 -35 129.99 35" height="151.825483872" data-palette-color="#010c80"><path d="M3.5-35L21.5-35Q25.25-35 28.23-34.18 31.2-33.35 33.25-31.78 35.3-30.2 36.4-27.93 37.5-25.65 37.5-22.75L37.5-22.75Q37.5-18.75 35.5-16 33.5-13.25 29.75-11.8L29.75-11.8 38 0 29.75 0 22.4-10.5 21.5-10.5 10.75-10.5 10.75 0 3.5 0 3.5-35ZM21.5-31.25L10.75-31.25 10.75-14.25 21.5-14.25Q25.45-14.25 27.6-16.32 29.75-18.4 29.75-22.75L29.75-22.75Q29.75-27.1 27.6-29.18 25.45-31.25 21.5-31.25L21.5-31.25ZM78.5-35L66-17.75 79.25 0 71 0 59.5-15.5 50.75-15.5 50.75 0 43.5 0 43.5-35 50.75-35 50.75-19.25 59-19.25 70.5-35 78.5-35ZM90.5-35L90.5 0 83.25 0 83.25-35 90.5-35ZM126.24-35L133.49-35 133.49 0 123.99 0 105.24-28.5 104.74-28.5 104.74 0 97.49 0 97.49-35 106.99-35 125.74-6.5 126.24-6.5 126.24-35Z" opacity="1" transform="matrix(1,0,0,1,0,0)" fill="#010c80" class="undefined-gc-1"></path></svg></g></svg></g></svg></g><g transform="matrix(1,0,0,1,463.5479093088992,281.5146569305663)"><svg viewBox="0 0 659.1159543600257 57.57186375048391" height="57.57186375048391" width="659.1159543600257"><g transform="matrix(1,0,0,1,0,0)"><svg width="659.1159543600257" viewBox="0.1 -40.16 638.61 55.79" height="57.57186375048391" data-palette-color="#010c80"><path d="M26 0L12.84 0Q12.01 0 12.01-0.49L12.01-0.49 12.01-0.73Q12.01-1.12 12.73-1.21 13.45-1.29 13.67-1.32L13.67-1.32Q15.53-1.51 16.28-2.23 17.04-2.95 17.04-4.39L17.04-4.39 17.04-12.48Q17.04-12.65 16.97-12.84L16.97-12.84 6.98-28.76Q4.64-32.5 2.34-33.06L2.34-33.06Q2.22-33.08 1.9-33.15 1.59-33.23 0.49-33.4L0.49-33.4Q0.1-33.47 0.1-33.95 0.1-34.42 0.46-34.42L0.46-34.42 14.43-34.42Q14.84-34.42 14.84-33.94 14.84-33.45 14.43-33.45L14.43-33.45Q12.79-33.28 12.26-33.11L12.26-33.11Q11.04-32.67 11.04-31.54L11.04-31.54Q11.04-30.96 11.33-30.49L11.33-30.49 19.58-17.31Q19.85-16.92 19.91-16.81 19.97-16.7 20.18-16.7 20.39-16.7 20.83-17.41L20.83-17.41 27.42-28.61Q27.71-29.2 28.09-29.87 28.47-30.54 28.47-31.25L28.47-31.25Q28.47-33.03 26.03-33.35L26.03-33.35Q25.15-33.47 25.07-33.62 25-33.76 25-33.98L25-33.98Q25-34.42 25.42-34.42L25.42-34.42 36.82-34.42Q37.16-34.42 37.16-34.08 37.16-33.74 37.05-33.62 36.94-33.5 36.76-33.44 36.57-33.37 36.35-33.34 36.13-33.3 35.4-33.13L35.4-33.13Q33.69-32.71 31.69-30.42L31.69-30.42Q31.47-30.15 31.45-30.1L31.45-30.1 21.8-13.5 21.8-4.39Q21.8-3.08 22.55-2.32 23.29-1.56 25.06-1.33 26.83-1.1 26.83-0.76L26.83-0.76 26.83-0.49Q26.83 0 26 0L26 0ZM39.11-10.97Q39.11-15.77 42.51-19.23 45.92-22.68 50.68-22.68 55.44-22.68 58.96-19.32 62.47-15.97 62.47-11.04 62.47-6.1 59.14-2.72 55.81 0.66 50.78 0.66 45.75 0.66 42.43-2.76 39.11-6.18 39.11-10.97ZM45.19-4.69L45.19-4.69Q47.58-0.66 51.71-0.66L51.71-0.66Q54.9-0.66 56.6-3.22 58.3-5.79 58.3-9.52 58.3-13.26 55.92-17.19 53.54-21.12 49.51-21.12L49.51-21.12Q46.56-21.12 44.86-18.57 43.16-16.02 43.16-12.1 43.16-8.18 45.19-4.69ZM82.71 0.05L82.71-2.15Q82.59-2.56 82.39-2.43 82.2-2.29 80.81-1.59L80.81-1.59Q76.24 0.68 73.19 0.68 70.14 0.68 68.79-1.27L68.79-1.27Q68.31-2 68.31-3.08L68.31-3.08 68.31-17.97Q68.23-18.68 67.67-19.19L67.67-19.19Q66.91-19.82 66.1-19.87 65.28-19.92 65.28-20.37 65.28-20.83 65.67-20.92L65.67-20.92 71.26-22.53Q71.55-22.63 71.83-22.63 72.11-22.63 72.11-22.22L72.11-22.22 72.11-5.83Q72.11-4.13 73.63-3.2 75.14-2.27 77.5-2.27 79.85-2.27 81.73-3.71L81.73-3.71Q82.32-4.17 82.71-4.74L82.71-4.74 82.71-17.97Q82.64-18.68 82.08-19.19L82.08-19.19Q81.32-19.82 80.5-19.87 79.68-19.92 79.68-20.37 79.68-20.83 80.07-20.92L80.07-20.92 85.66-22.53Q85.96-22.63 86.24-22.63 86.52-22.63 86.52-22.14L86.52-22.14 86.52-4.81Q86.64-3.74 87.13-3.27 87.62-2.81 88.72-2.81L88.72-2.81 90.13-2.91Q90.28-2.91 90.28-2.62 90.28-2.34 89.91-2.17L89.91-2.17 83.42 0.51Q83.12 0.66 82.92 0.66 82.71 0.66 82.71 0.05L82.71 0.05ZM121.94-21.62Q123.01-21.24 123.26-21.24 123.5-21.24 123.56-21.25 123.62-21.26 123.72-21.56L123.72-21.56 123.72-34.16Q123.72-35.18 122.6-35.57L122.6-35.57Q122.11-35.74 121.55-35.85 120.99-35.96 120.66-36.06 120.33-36.16 120.24-36.24 120.16-36.33 120.16-36.61 120.16-36.89 120.52-37.08L120.52-37.08 126.75-40.01Q127.04-40.16 127.11-40.16L127.11-40.16Q127.53-40.16 127.53-39.58L127.53-39.58 127.53-4.81Q127.65-3.74 128.14-3.27 128.63-2.81 129.73-2.81L129.73-2.81 131.14-2.91Q131.29-2.91 131.29-2.62 131.29-2.34 130.92-2.17L130.92-2.17 124.43 0.51Q124.14 0.66 123.93 0.66 123.72 0.66 123.72 0.05L123.72 0.05 123.72-2.17Q123.72-2.42 123.6-2.42L123.6-2.42Q123.43-2.42 121.57-1.32L121.57-1.32Q115.88 2.05 111.98-0.32L111.98-0.32Q108.85-2.22 107.75-6.35L107.75-6.35Q107.24-8.28 107.24-10.44 107.24-12.6 108.13-14.73 109.02-16.87 110.59-18.48L110.59-18.48Q114.03-22 118.89-22L118.89-22Q120.86-22 121.94-21.62ZM110.93-11.15Q110.93-7.45 112.98-4.68 115.03-1.9 118.69-1.9L118.69-1.9Q120.3-1.9 122.01-2.7 123.72-3.49 123.72-3.91L123.72-3.91 123.72-16.5Q123.72-16.97 123.09-17.6L123.09-17.6Q121.13-20.29 117.9-20.29 114.66-20.29 112.8-17.57 110.93-14.84 110.93-11.15ZM151.57-12.87L137.41-12.87Q137-12.87 137-11.08L137-11.08Q137-7.3 139.25-4.74 141.49-2.17 144.82-2.17 148.16-2.17 151.23-5.05L151.23-5.05Q151.28-5.1 151.35-5.1L151.35-5.1 151.48-5.1Q151.62-5.1 151.76-4.87 151.89-4.64 152.01-4.57L152.01-4.57Q149.18-1.12 145.35 0.2L145.35 0.2Q144.03 0.66 142.37 0.66 140.71 0.66 139-0.26 137.29-1.17 136.07-2.66L136.07-2.66Q133.48-5.76 133.48-10.39 133.48-15.01 136.3-18.82 139.12-22.63 144.05-22.63L144.05-22.63Q147.59-22.63 149.84-19.47 152.09-16.31 152.09-13.92L152.09-13.92Q152.09-12.87 151.57-12.87L151.57-12.87ZM137.68-15.5L137.68-15.21Q137.68-14.75 138.12-14.75L138.12-14.75 147.33-14.75Q147.96-14.75 147.96-15.5L147.96-15.5Q147.96-17.26 146.39-19.1 144.81-20.95 142.93-20.95L142.93-20.95Q141.1-20.95 139.6-19.29 138.1-17.63 137.68-15.5L137.68-15.5ZM175.35-19.7L175.35-19.7Q175.35-17.99 173.37-17.99L173.37-17.99Q172.37-17.99 171.68-18.57 170.98-19.14 170.6-19.54 170.22-19.95 169.81-20.29L169.81-20.29Q168.05-21.73 165.52-20.61 163-19.48 161.63-15.82L161.63-15.82Q160.87-13.79 160.87-11.79L160.87-11.79Q160.87-7.5 162.83-4.77 164.78-2.05 168.81-2.05L168.81-2.05Q171.81-2.05 174.2-4.74L174.2-4.74Q174.94-5.54 175.08-5.54 175.23-5.54 175.4-5.4 175.57-5.25 175.57-4.97 175.57-4.69 175.42-4.54L175.42-4.54Q171.69 0.66 166.03 0.66L166.03 0.66Q161.92 0.66 159.3-2.39 156.67-5.44 156.67-9.38L156.67-9.38Q156.7-16.65 160.19-19.85L160.19-19.85Q163.27-22.66 168.95-22.66L168.95-22.66Q172.47-22.66 173.62-21.95 174.77-21.24 175.23-20.17L175.23-20.17Q175.35-19.92 175.35-19.7ZM189.88 0L178.99 0Q178.74-0.05 178.74-0.34L178.74-0.34Q178.74-0.78 179.89-0.93L179.89-0.93Q182.53-1.32 182.53-3.71L182.53-3.71 182.53-16.63Q182.53-17.65 181.4-18.04L181.4-18.04Q180.92-18.21 180.35-18.32 179.79-18.43 179.46-18.53 179.13-18.63 179.05-18.71 178.96-18.8 178.96-19.08 178.96-19.36 179.33-19.56L179.33-19.56 185.55-22.49Q185.85-22.63 185.92-22.63L185.92-22.63Q186.34-22.63 186.34-22.05L186.34-22.05 186.34-3.71Q186.34-1.32 188.97-0.93L188.97-0.93Q190.12-0.78 190.12-0.42 190.12-0.05 189.88 0L189.88 0ZM184.08-29.49Q183.06-29.49 182.29-30.13 181.53-30.76 181.53-31.9 181.53-33.03 182.26-33.69 182.99-34.35 184-34.35 185.02-34.35 185.71-33.57 186.41-32.79 186.41-31.88 186.41-30.98 185.75-30.24 185.09-29.49 184.08-29.49ZM208.11-21.62Q209.18-21.24 209.43-21.24 209.67-21.24 209.73-21.25 209.79-21.26 209.89-21.56L209.89-21.56 209.89-34.16Q209.89-35.18 208.77-35.57L208.77-35.57Q208.28-35.74 207.72-35.85 207.16-35.96 206.83-36.06 206.5-36.16 206.41-36.24 206.33-36.33 206.33-36.61 206.33-36.89 206.69-37.08L206.69-37.08 212.92-40.01Q213.21-40.16 213.29-40.16L213.29-40.16Q213.7-40.16 213.7-39.58L213.7-39.58 213.7-4.81Q213.82-3.74 214.31-3.27 214.8-2.81 215.9-2.81L215.9-2.81 217.31-2.91Q217.46-2.91 217.46-2.62 217.46-2.34 217.09-2.17L217.09-2.17 210.6 0.51Q210.31 0.66 210.1 0.66 209.89 0.66 209.89 0.05L209.89 0.05 209.89-2.17Q209.89-2.42 209.77-2.42L209.77-2.42Q209.6-2.42 207.74-1.32L207.74-1.32Q202.06 2.05 198.15-0.32L198.15-0.32Q195.02-2.22 193.93-6.35L193.93-6.35Q193.41-8.28 193.41-10.44 193.41-12.6 194.3-14.73 195.19-16.87 196.76-18.48L196.76-18.48Q200.2-22 205.06-22L205.06-22Q207.04-22 208.11-21.62ZM197.1-11.15Q197.1-7.45 199.15-4.68 201.2-1.9 204.86-1.9L204.86-1.9Q206.47-1.9 208.18-2.7 209.89-3.49 209.89-3.91L209.89-3.91 209.89-16.5Q209.89-16.97 209.26-17.6L209.26-17.6Q207.3-20.29 204.07-20.29 200.83-20.29 198.97-17.57 197.1-14.84 197.1-11.15ZM237.75-12.87L223.59-12.87Q223.17-12.87 223.17-11.08L223.17-11.08Q223.17-7.3 225.42-4.74 227.66-2.17 231-2.17 234.33-2.17 237.4-5.05L237.4-5.05Q237.45-5.1 237.53-5.1L237.53-5.1 237.65-5.1Q237.79-5.1 237.93-4.87 238.06-4.64 238.19-4.57L238.19-4.57Q235.35-1.12 231.52 0.2L231.52 0.2Q230.2 0.66 228.54 0.66 226.88 0.66 225.17-0.26 223.46-1.17 222.24-2.66L222.24-2.66Q219.66-5.76 219.66-10.39 219.66-15.01 222.48-18.82 225.29-22.63 230.23-22.63L230.23-22.63Q233.77-22.63 236.01-19.47 238.26-16.31 238.26-13.92L238.26-13.92Q238.26-12.87 237.75-12.87L237.75-12.87ZM223.85-15.5L223.85-15.21Q223.85-14.75 224.29-14.75L224.29-14.75 233.5-14.75Q234.13-14.75 234.13-15.5L234.13-15.5Q234.13-17.26 232.56-19.1 230.98-20.95 229.1-20.95L229.1-20.95Q227.27-20.95 225.77-19.29 224.27-17.63 223.85-15.5L223.85-15.5ZM283.91-21.97L293.16-21.97Q293.43-21.9 293.43-21.63 293.43-21.36 293.36-21.24 293.28-21.12 292.28-20.97 291.28-20.83 290.85-20.4 290.43-19.97 290.1-19.43 289.77-18.9 289.52-18.32 289.28-17.75 289.06-17.29L289.06-17.29 282.39-0.05Q282.1 0.66 281.86 0.66L281.86 0.66 279.93 0.66Q279.68 0.66 279.39-0.1L279.39-0.1 273.97-14.77 268.28-0.05Q267.99 0.66 267.75 0.66L267.75 0.66 265.82 0.66Q265.57 0.66 265.28-0.1L265.28-0.1 258.81-17.6Q257.91-20.07 255.71-20.78L255.71-20.78Q255.54-20.83 255.29-20.85L255.29-20.85Q254.27-20.95 254.27-21.46 254.27-21.97 254.86-21.97L254.86-21.97 265.72-21.97Q265.91-21.97 265.91-21.59 265.91-21.22 265.65-21.09L265.65-21.09Q265.21-20.92 264.13-20.95L264.13-20.95Q262.35-21 262.35-19.48L262.35-19.48 262.4-18.9 267.36-5.35Q267.84-4.1 268.33-5.42L268.33-5.42Q268.38-5.54 270.37-10.55 272.36-15.55 272.92-17.6L272.92-17.6Q272.02-20.07 269.82-20.78L269.82-20.78Q269.65-20.83 269.41-20.85L269.41-20.85Q268.38-20.95 268.38-21.46 268.38-21.97 268.97-21.97L268.97-21.97 279.83-21.97Q280.03-21.97 280.03-21.59 280.03-21.22 279.76-21.09L279.76-21.09Q279.32-20.92 278.24-20.95L278.24-20.95Q276.46-21 276.46-19.48L276.46-19.48 276.51-18.9 281.47-5.35Q281.95-4.1 282.44-5.42L282.44-5.42Q282.49-5.54 283.08-7.01L283.08-7.01Q286.08-14.53 286.63-16.3 287.18-18.07 287.18-18.73 287.18-19.38 286.47-20.1 285.76-20.83 284.57-20.83 283.37-20.83 283.37-21.56L283.37-21.56Q283.37-21.97 283.91-21.97L283.91-21.97ZM302.48-39.58L302.48-18.9Q302.48-18.31 302.66-18.31 302.83-18.31 302.9-18.4 302.97-18.48 303.93-19.53L303.93-19.53Q306.68-22.61 309.52-22.61L309.52-22.61Q313.23-22.61 314.96-20.95L314.96-20.95Q317.08-18.85 317.08-13.89L317.08-13.89 317.08-3.71Q317.08-1.32 319.72-0.93L319.72-0.93Q320.87-0.78 320.87-0.42 320.87-0.05 320.62 0L320.62 0 309.74 0Q309.49-0.05 309.49-0.34L309.49-0.34Q309.49-0.78 310.64-0.93L310.64-0.93Q313.28-1.32 313.28-3.71L313.28-3.71 313.28-13.65Q313.28-17.24 312.76-18.31L312.76-18.31Q311.79-20.46 308.69-20.46L308.69-20.46Q306.78-20.46 304.63-18.84 302.48-17.21 302.48-15.26L302.48-15.26 302.48-3.71Q302.48-1.32 305.12-0.93L305.12-0.93Q306.27-0.78 306.27-0.42 306.27-0.05 306.02 0L306.02 0 295.14 0Q294.89-0.05 294.89-0.34L294.89-0.34Q294.89-0.78 296.04-0.93L296.04-0.93Q298.68-1.32 298.68-3.71L298.68-3.71 298.68-34.16Q298.68-35.18 297.55-35.57L297.55-35.57Q297.06-35.74 296.5-35.85 295.94-35.96 295.61-36.06 295.28-36.16 295.2-36.24 295.11-36.33 295.11-36.61 295.11-36.89 295.48-37.08L295.48-37.08 301.7-40.01Q302-40.16 302.07-40.16L302.07-40.16Q302.48-40.16 302.48-39.58L302.48-39.58ZM341.4-12.87L327.24-12.87Q326.82-12.87 326.82-11.08L326.82-11.08Q326.82-7.3 329.07-4.74 331.32-2.17 334.65-2.17 337.98-2.17 341.06-5.05L341.06-5.05Q341.11-5.1 341.18-5.1L341.18-5.1 341.3-5.1Q341.45-5.1 341.58-4.87 341.72-4.64 341.84-4.57L341.84-4.57Q339.01-1.12 335.17 0.2L335.17 0.2Q333.85 0.66 332.19 0.66 330.53 0.66 328.82-0.26 327.12-1.17 325.9-2.66L325.9-2.66Q323.31-5.76 323.31-10.39 323.31-15.01 326.13-18.82 328.95-22.63 333.88-22.63L333.88-22.63Q337.42-22.63 339.66-19.47 341.91-16.31 341.91-13.92L341.91-13.92Q341.91-12.87 341.4-12.87L341.4-12.87ZM327.51-15.5L327.51-15.21Q327.51-14.75 327.95-14.75L327.95-14.75 337.15-14.75Q337.78-14.75 337.78-15.5L337.78-15.5Q337.78-17.26 336.21-19.1 334.64-20.95 332.76-20.95L332.76-20.95Q330.92-20.95 329.42-19.29 327.92-17.63 327.51-15.5L327.51-15.5ZM360.85-17.5L360.85-17.5Q360.56-17.55 360-17.82L360-17.82Q357.97-18.75 356.83-18.75 355.68-18.75 354.42-17.32 353.16-15.89 353.16-14.75L353.16-14.75 353.16-3.71Q353.16-1.88 355.29-1.27L355.29-1.27Q356.22-1.03 357.02-0.92 357.83-0.81 358.06-0.71 358.29-0.61 358.29-0.33 358.29-0.05 358.05 0L358.05 0 345.81 0Q345.57-0.05 345.57-0.34L345.57-0.34Q345.57-0.78 346.72-0.93L346.72-0.93Q349.35-1.32 349.35-3.71L349.35-3.71 349.35-16.63Q349.35-17.65 348.23-18.04L348.23-18.04Q347.74-18.21 347.18-18.32 346.62-18.43 346.29-18.53 345.96-18.63 345.88-18.71 345.79-18.8 345.79-19.08 345.79-19.36 346.16-19.56L346.16-19.56 352.38-22.49Q352.67-22.63 352.75-22.63L352.75-22.63Q353.16-22.63 353.16-22.05L353.16-22.05 353.16-18.09Q353.16-17.8 353.31-17.8L353.31-17.8Q353.51-17.8 354.31-18.95L354.31-18.95Q356.63-22.19 358.14-22.19L358.14-22.19Q359-22.19 360.77-21.51 362.54-20.83 362.54-20.36L362.54-20.36Q362.54-19.8 361.98-18.65 361.42-17.5 360.85-17.5ZM382.34-12.87L368.18-12.87Q367.76-12.87 367.76-11.08L367.76-11.08Q367.76-7.3 370.01-4.74 372.25-2.17 375.59-2.17 378.92-2.17 381.99-5.05L381.99-5.05Q382.04-5.1 382.12-5.1L382.12-5.1 382.24-5.1Q382.38-5.1 382.52-4.87 382.65-4.64 382.78-4.57L382.78-4.57Q379.94-1.12 376.11 0.2L376.11 0.2Q374.79 0.66 373.13 0.66 371.47 0.66 369.76-0.26 368.05-1.17 366.83-2.66L366.83-2.66Q364.24-5.76 364.24-10.39 364.24-15.01 367.06-18.82 369.88-22.63 374.82-22.63L374.82-22.63Q378.36-22.63 380.6-19.47 382.85-16.31 382.85-13.92L382.85-13.92Q382.85-12.87 382.34-12.87L382.34-12.87ZM368.44-15.5L368.44-15.21Q368.44-14.75 368.88-14.75L368.88-14.75 378.09-14.75Q378.72-14.75 378.72-15.5L378.72-15.5Q378.72-17.26 377.15-19.1 375.57-20.95 373.69-20.95L373.69-20.95Q371.86-20.95 370.36-19.29 368.86-17.63 368.44-15.5L368.44-15.5ZM414.95-21.97L424.2-21.97Q424.47-21.9 424.47-21.63 424.47-21.36 424.42-21.28 424.37-21.19 424.19-21.13 424.01-21.07 423.68-21.02 423.35-20.97 422.64-20.84 421.93-20.7 421.37-19.85 420.81-18.99 420.17-17.48L420.17-17.48 408.7 10.96 407.11 14.33Q406.5 15.63 404.55 15.63L404.55 15.63Q403.69 15.63 403.18 15.06 402.67 14.5 402.67 13.73 402.67 12.96 403.05 12.61 403.42 12.26 403.94 12.04 404.45 11.82 405 11.63 405.55 11.45 406.23 10.8 406.92 10.16 407.04 9.84L407.04 9.84Q411.14 0.66 411.14 0.24 411.14-0.17 410.65-0.78L410.65-0.78 402.59-17.6Q401.69-20.07 399.49-20.78L399.49-20.78Q399.32-20.83 399.08-20.85L399.08-20.85Q398.05-20.95 398.05-21.46 398.05-21.97 398.64-21.97L398.64-21.97 409.5-21.97Q409.7-21.97 409.7-21.59 409.7-21.22 409.36-21.08 409.02-20.95 407.84-20.95L407.84-20.95Q405.96-20.95 405.96-19.48L405.96-19.48 406.18-18.9 412.51-5.35Q412.99-4.1 413.48-5.42L413.48-5.42Q413.53-5.54 414.09-7.01L414.09-7.01Q417.41-15.43 417.82-16.75 418.22-18.07 418.22-18.73 418.22-19.38 417.52-20.12 416.83-20.85 415.62-20.85 414.41-20.85 414.41-21.56L414.41-21.56Q414.41-21.97 414.95-21.97L414.95-21.97ZM426.91-10.97Q426.91-15.77 430.31-19.23 433.72-22.68 438.48-22.68 443.24-22.68 446.76-19.32 450.27-15.97 450.27-11.04 450.27-6.1 446.94-2.72 443.61 0.66 438.58 0.66 433.55 0.66 430.23-2.76 426.91-6.18 426.91-10.97ZM432.99-4.69L432.99-4.69Q435.38-0.66 439.51-0.66L439.51-0.66Q442.7-0.66 444.4-3.22 446.1-5.79 446.1-9.52 446.1-13.26 443.72-17.19 441.34-21.12 437.31-21.12L437.31-21.12Q434.35-21.12 432.66-18.57 430.96-16.02 430.96-12.1 430.96-8.18 432.99-4.69ZM470.51 0.05L470.51-2.15Q470.39-2.56 470.19-2.43 470-2.29 468.6-1.59L468.6-1.59Q464.04 0.68 460.99 0.68 457.94 0.68 456.59-1.27L456.59-1.27Q456.1-2 456.1-3.08L456.1-3.08 456.1-17.97Q456.03-18.68 455.47-19.19L455.47-19.19Q454.71-19.82 453.9-19.87 453.08-19.92 453.08-20.37 453.08-20.83 453.47-20.92L453.47-20.92 459.06-22.53Q459.35-22.63 459.63-22.63 459.91-22.63 459.91-22.22L459.91-22.22 459.91-5.83Q459.91-4.13 461.43-3.2 462.94-2.27 465.3-2.27 467.65-2.27 469.53-3.71L469.53-3.71Q470.12-4.17 470.51-4.74L470.51-4.74 470.51-17.97Q470.44-18.68 469.87-19.19L469.87-19.19Q469.12-19.82 468.3-19.87 467.48-19.92 467.48-20.37 467.48-20.83 467.87-20.92L467.87-20.92 473.46-22.53Q473.76-22.63 474.04-22.63 474.32-22.63 474.32-22.14L474.32-22.14 474.32-4.81Q474.44-3.74 474.93-3.27 475.42-2.81 476.52-2.81L476.52-2.81 477.93-2.91Q478.08-2.91 478.08-2.62 478.08-2.34 477.71-2.17L477.71-2.17 471.22 0.51Q470.92 0.66 470.72 0.66 470.51 0.66 470.51 0.05L470.51 0.05ZM510.01 0L495.41 0Q495.21 0 495.21-0.49L495.21-0.49 495.21-0.78Q495.21-0.98 495.46-0.98 495.7-0.98 496.18-1.12 496.65-1.27 496.9-1.32L496.9-1.32Q499.39-1.88 499.39-4.15L499.39-4.15 499.39-29.93Q499.39-32.18 498.56-32.8 497.73-33.42 495.55-33.42L495.55-33.42 494.45-33.42Q493.94-33.42 493.94-34.01L493.94-34.01Q493.94-34.35 494.26-34.42L494.26-34.42 494.43-34.42 508.13-34.79 510.59-34.79Q514.96-34.5 517.87-31.64 520.77-28.78 520.77-24.79 520.77-20.8 517.92-17.55L517.92-17.55Q516.67-16.11 515.11-15.22 513.55-14.33 512.03-14.31L512.03-14.31 504.71-14.6 504.51-14.6Q504.15-14.6 504.15-14.26L504.15-14.26 504.15-4.22Q504.15-2.88 504.88-2.25 505.61-1.61 507.98-1.25L507.98-1.25Q508.3-1.2 509.01-1.09 509.71-0.98 509.96-0.98 510.2-0.98 510.2-0.78L510.2-0.78 510.2-0.2Q510.2 0 510.01 0L510.01 0ZM506.12-33.56Q505.83-33.54 505.5-33.53 505.17-33.52 504.66-33.51 504.15-33.5 504.15-33.11L504.15-33.11 504.15-17.36 504.2-16.63Q504.27-16.11 504.66-16.09L504.66-16.09 507.15-15.94Q511.08-15.94 513.49-18.58 515.89-21.22 515.89-25.21 515.89-29.2 513.56-31.4 511.23-33.59 507.34-33.59L507.34-33.59Q507-33.59 506.71-33.58 506.42-33.57 506.12-33.56ZM535.52-0.78L535.52-0.2Q535.52 0 535.32 0L535.32 0 522.85 0Q522.65 0 522.65-0.2L522.65-0.2 522.65-0.78Q522.65-0.98 522.97-0.98L522.97-0.98Q526.31-1.12 527.48-4.54L527.48-4.54 537.44-33.37Q537.47-33.42 537.47-33.5L537.47-33.5 537.2-34.3Q537.2-34.42 537.3-34.42L537.3-34.42 542.18-34.42Q542.23-34.4 542.32-34.38 542.4-34.35 542.45-34.23L542.45-34.23 552.78-5.25Q553.12-4.59 553.33-4.05 553.53-3.52 553.8-3.08L553.8-3.08Q554.39-2.08 555.73-1.54L555.73-1.54Q556.85-0.98 557.78-0.98L557.78-0.98Q557.98-0.98 557.98-0.76L557.98-0.76 557.98-0.2Q557.98 0 557.78 0L557.78 0 542.84 0Q542.65 0 542.65-0.2L542.65-0.2 542.65-0.78Q542.65-0.98 543.55-1.03 544.45-1.07 545.04-1.12L545.04-1.12Q548.43-1.49 548.43-3.42L548.43-3.42Q548.43-3.56 548.38-3.76L548.38-3.76 544.7-14.16Q544.67-14.21 544.6-14.38L544.6-14.38Q544.31-15.21 543.57-15.21L543.57-15.21 534.91-15.21Q534.17-15.21 533.76-14.4L533.76-14.4Q533.69-14.23 533.69-14.21L533.69-14.21 530.02-3.49 530.02-3.27Q530.02-2.64 530.68-2.12L530.68-2.12Q532.17-0.98 534.69-0.98L534.69-0.98 535.32-0.98Q535.52-0.98 535.52-0.78L535.52-0.78ZM535.54-17.92L542.74-17.92Q543.18-17.92 543.18-18.29L543.18-18.29Q543.18-18.48 543.08-18.73L543.08-18.73 539.45-28.74Q539.2-29.39 539.08-29.39L539.08-29.39Q538.96-29.39 538.69-28.71L538.69-28.71 535.27-18.73Q535.17-18.48 535.17-18.2 535.17-17.92 535.54-17.92L535.54-17.92ZM574.38 0L559.37 0Q559.17 0 559.17-0.49L559.17-0.49 559.17-0.78Q559.17-0.98 559.37-0.98L559.37-0.98Q559.51-0.98 559.83-1.03 560.15-1.07 560.49-1.12 560.83-1.17 561.12-1.23 561.42-1.29 561.54-1.32L561.54-1.32Q564.03-1.88 564.03-4.15L564.03-4.15 564.03-29.93Q564.03-32.03 562.34-32.91L562.34-32.91Q561.34-33.45 560.2-33.45L560.2-33.45 559.27-33.45Q559.07-33.45 559.07-33.64L559.07-33.64 559.07-34.23Q559.07-34.42 559.37-34.42L559.37-34.42 572.77-34.79 575.24-34.79Q579.56-34.5 582.47-31.65 585.39-28.81 585.39-24.65 585.39-20.48 581.92-18.16L581.92-18.16Q580.85-17.46 579.61-16.89L579.61-16.89 587-4.81Q588.93-1.64 592.18-0.34L592.18-0.34Q592.45-0.27 592.45 0L592.45 0Q592.45 0.61 591.64 0.61L591.64 0.61Q586.15 0.61 582.9-3.56L582.9-3.56Q582.19-4.49 581.49-5.64L581.49-5.64 575.16-15.55 569.35-15.82 569.16-15.82Q568.79-15.82 568.79-15.48L568.79-15.48 568.79-4.22Q568.79-2.88 569.55-2.22 570.3-1.56 572.16-1.32L572.16-1.32Q572.65-1.25 573.36-1.11 574.06-0.98 574.32-0.98 574.58-0.98 574.58-0.78L574.58-0.78 574.58-0.2Q574.58 0 574.38 0L574.38 0ZM570.77-33.51Q570.47-33.5 570.15-33.48 569.82-33.47 569.3-33.46 568.79-33.45 568.79-33.06L568.79-33.06 568.79-18.26 568.84-17.53Q568.91-17.02 569.3-16.99L569.3-16.99 571.79-16.85Q578.65-16.85 580.07-21.73L580.07-21.73Q580.53-23.27 580.53-25.24L580.53-25.24Q580.53-29.1 578.13-31.32 575.72-33.54 571.99-33.54L571.99-33.54Q571.65-33.54 571.35-33.53 571.06-33.52 570.77-33.51ZM608.44-0.61L608.44-0.2Q608.44 0 608.24 0L608.24 0 593.89 0Q593.71 0 593.71-0.2L593.71-0.2 593.71-0.66Q593.71-0.85 594.75-0.88 595.79-0.9 597.29-1.65 598.79-2.39 598.79-3.91L598.79-3.91 598.79-30.52Q598.79-33.28 593.91-33.57L593.91-33.57Q593.71-33.57 593.71-33.76L593.71-33.76 593.71-34.23Q593.71-34.42 593.89-34.42L593.89-34.42 608.24-34.42Q608.44-34.42 608.44-34.23L608.44-34.23 608.44-33.76Q608.44-33.62 607.42-33.62 606.41-33.62 605.19-33.03L605.19-33.03Q603.55-32.25 603.55-30.47L603.55-30.47 603.55-19.7Q603.55-17.55 603.97-17.55L603.97-17.55Q605.02-17.55 606.63-18.88 608.24-20.21 609.49-21.63 610.73-23.05 611.99-24.99 613.25-26.93 613.73-27.64L613.73-27.64Q615.56-30.22 615.56-31.53 615.56-32.84 614.44-33.28L614.44-33.28Q613.71-33.57 612.34-33.57L612.34-33.57 612.1-33.57Q611.9-33.57 611.9-33.76L611.9-33.76 611.9-34.23Q611.9-34.42 612.1-34.42L612.1-34.42 626.21-34.42Q626.4-34.42 626.4-34.23L626.4-34.23 626.4-33.76Q626.4-33.47 626.11-33.47L626.11-33.47Q622.99-33.37 621.55-32.65 620.11-31.93 619.24-31.08 618.37-30.22 617.35-28.49L617.35-28.49Q614.22-23.19 611.12-20.02L611.12-20.02Q609.8-18.68 609.75-18.36L609.75-18.36Q609.88-18.12 611.76-16.41L611.76-16.41Q616.44-12.11 621.6-4.76L621.6-4.76Q623.52-1.95 626.65-1.29L626.65-1.29Q628.72-0.81 629.27-0.81 629.82-0.81 629.82-0.61L629.82-0.61 629.82-0.2Q629.82 0 629.63 0L629.63 0 613.66 0Q613.47 0 613.47-0.2L613.47-0.2 613.47-0.66Q613.47-0.85 614.3-0.93L614.3-0.93Q617.05-1.17 617.05-2.54L617.05-2.54Q616.88-3.91 612.15-9.3L612.15-9.3Q611.29-10.25 610.36-11.43L610.36-11.43Q606.65-15.99 604.26-15.99L604.26-15.99 603.8-15.99Q603.55-15.99 603.55-15.65L603.55-15.65 603.55-4.22Q603.55-0.81 608.24-0.81L608.24-0.81Q608.44-0.81 608.44-0.61L608.44-0.61ZM633.12-2.25L633.12-2.25Q633.12-3.42 633.93-4.24 634.75-5.05 635.9-5.05 637.05-5.05 637.88-4.17 638.71-3.3 638.71-2.15 638.71-1 637.93-0.17 637.14 0.66 635.96 0.66 634.78 0.66 633.95-0.17 633.12-1 633.12-2.25ZM635.87-36.45L636.78-36.45Q637.27-36.45 637.78-36.43 638.29-36.4 638.41-36.06L638.41-36.06 638.41-34.79 636.61-11.3Q636.49-10.35 635.87-10.35L635.87-10.35Q635.24-10.35 635.12-11.3L635.12-11.3 633.31-34.79 633.31-36.06Q633.31-36.4 633.68-36.4L633.68-36.4 635.87-36.45Z" opacity="1" transform="matrix(1,0,0,1,0,0)" fill="#ffffff" class="undefined-text-1" data-fill-palette-color="secondary" id="text-1"></path></svg></g></svg></g></svg></g></svg></g></svg></g><defs></defs></svg><rect width="395.52" height="119.46184873313051" fill="none" stroke="none" visibility="hidden"></rect></g></svg></g></svg>